<svg enable-background="new 0 0 427.008 427.008" viewBox="0 0 427.008 427.008" xmlns="http://www.w3.org/2000/svg"><path d="m319.71 248.32c-24.576 0-47.104 10.24-64.512 27.648l-61.44-38.4c4.096-15.36 4.096-31.744 0-46.592l60.928-38.912c16.896 17.408 39.936 27.648 64.512 27.648 49.664 0 89.6-39.936 89.6-89.6s-39.936-90.112-89.6-90.112-89.6 39.936-89.6 89.6c0 2.56 0 4.608.512 7.168l-71.168 44.032c-39.936-29.184-96.256-19.968-124.928 20.48-28.672 39.936-19.968 96.256 20.48 124.928 31.232 22.528 73.728 22.528 105.472 0l71.168 43.52c0 2.56-.512 4.608-.512 7.68 0 49.664 39.936 89.6 89.6 89.6s89.6-39.936 89.6-89.6c-.512-49.152-40.448-89.088-90.112-89.088z"/></svg>