<svg viewBox="0 0 114.74 103.26" xmlns="http://www.w3.org/2000/svg"><path d="m57.37 40.16c.56 0 1.12 0 1.69.08s1.11.14 1.67.25 1.1.25 1.63.41a15.05 15.05 0 0 1 1.59.57 14.22 14.22 0 0 1 1.53.72c.5.27 1 .56 1.45.87s.92.65 1.36 1 .85.74 1.25 1.14a16.76 16.76 0 0 1 1.13 1.25 16.5 16.5 0 0 1 1 1.36c.31.47.6.95.87 1.45s.5 1 .72 1.52.4 1 .57 1.59.3 1.09.41 1.64.19 1.11.25 1.67.08 1.12.08 1.69 0 1.12-.08 1.69-.14 1.11-.25 1.67-.25 1.1-.41 1.63-.36 1.07-.57 1.59-.46 1-.72 1.53-.56 1-.87 1.45a16.5 16.5 0 0 1 -1 1.36c-.36.43-.73.85-1.13 1.25s-.82.77-1.25 1.13a16.5 16.5 0 0 1 -1.36 1c-.47.31-1 .6-1.45.87s-1 .5-1.53.72-1.05.4-1.59.57-1.08.3-1.63.41-1.11.19-1.67.25-1.13.08-1.69.08-1.13 0-1.69-.08-1.12-.14-1.67-.25-1.1-.25-1.64-.41-1.07-.36-1.59-.57-1-.46-1.52-.72-1-.56-1.45-.87a16.5 16.5 0 0 1 -1.36-1 16.76 16.76 0 0 1 -1.25-1.13c-.4-.4-.78-.82-1.14-1.25s-.69-.89-1-1.36-.6-1-.87-1.45a14.22 14.22 0 0 1 -.72-1.48 15.05 15.05 0 0 1 -.57-1.59c-.16-.53-.3-1.08-.41-1.63s-.19-1.11-.25-1.67-.08-1.13-.08-1.69 0-1.13.08-1.69.14-1.12.25-1.67.25-1.1.41-1.64a15.05 15.05 0 0 1 .57-1.59 14.07 14.07 0 0 1 .72-1.52c.27-.5.56-1 .87-1.45s.65-.92 1-1.36a18.4 18.4 0 0 1 2.39-2.39c.44-.35.89-.69 1.36-1s.95-.6 1.45-.87a14.07 14.07 0 0 1 1.52-.72 15.05 15.05 0 0 1 1.59-.57c.54-.16 1.09-.3 1.64-.41s1.11-.19 1.67-.25 1.12-.13 1.69-.13zm28.68 17.21a28.69 28.69 0 1 0 -28.68 28.68 28.69 28.69 0 0 0 28.68-28.68zm28.69-34.37v68.79a11.51 11.51 0 0 1 -11.48 11.47h-91.79a11.5 11.5 0 0 1 -11.47-11.47v-68.79a11.51 11.51 0 0 1 11.47-11.53h18.19l7.06-7.74a11.64 11.64 0 0 1 8.49-3.73h24.32a11.42 11.42 0 0 1 8.47 3.73l7.12 7.74h18.18a11.52 11.52 0 0 1 11.44 11.53z" fill="#f74a1a"/></svg>