<svg viewBox="0 0 101 101" xmlns="http://www.w3.org/2000/svg"><path d="m50.5 0q2.47 0 5 .24c1.65.17 3.28.41 4.9.73s3.23.72 4.81 1.2 3.14 1 4.67 1.67 3 1.34 4.48 2.12 2.87 1.63 4.25 2.55 2.7 1.9 4 3 2.5 2.16 3.67 3.33 2.28 2.39 3.33 3.67 2 2.61 2.95 4 1.77 2.8 2.55 4.25 1.48 3 2.12 4.48 1.19 3.09 1.67 4.67.88 3.19 1.2 4.81.56 3.25.73 4.9.24 3.3.24 5-.08 3.3-.24 5-.41 3.28-.73 4.9-.72 3.23-1.2 4.81-1 3.14-1.67 4.67-1.34 3-2.12 4.48-1.63 2.87-2.55 4.25-1.9 2.7-2.95 4-2.16 2.5-3.33 3.67-2.39 2.28-3.67 3.33-2.61 2-4 2.95-2.8 1.77-4.25 2.55-3 1.48-4.48 2.12-3.09 1.19-4.67 1.67-3.19.88-4.81 1.2-3.25.56-4.9.73-3.3.24-5 .24-3.3-.08-5-.24-3.28-.41-4.9-.73-3.23-.72-4.81-1.2-3.14-1-4.67-1.67-3-1.34-4.48-2.12-2.87-1.63-4.25-2.55-2.7-1.9-4-2.95-2.5-2.16-3.67-3.33-2.28-2.39-3.33-3.67-2-2.61-3-4-1.65-2.97-2.39-4.42-1.48-3-2.12-4.48-1.19-3.09-1.67-4.67-.92-3.16-1.21-4.81-.59-3.25-.76-4.9-.24-3.3-.24-4.95.08-3.3.24-5 .41-3.28.73-4.9.72-3.23 1.2-4.81 1-3.14 1.67-4.67 1.34-3 2.12-4.48 1.63-2.87 2.55-4.25 1.9-2.7 3-4 2.16-2.5 3.33-3.67 2.39-2.28 3.67-3.33 2.61-2 4-3 2.73-1.65 4.18-2.39 3-1.48 4.48-2.12 3.09-1.19 4.67-1.67 3.16-.92 4.81-1.21 3.25-.59 4.9-.76 3.3-.24 4.95-.24z" fill="#f74a1a"/><path d="m74.87 30.21-4.24-4.25-21.32 21.33-21.32-21.33-4.24 4.25 21.32 21.32-21.32 21.32 4.24 4.24 21.32-21.32 21.32 21.32 4.24-4.24-21.32-21.32z"/></svg>