<svg enable-background="new 0 0 612 612" height="612" viewBox="0 0 612 612" width="612" xmlns="http://www.w3.org/2000/svg"><path d="m289.052 191.691-36.224 87.974c-1.228 2.983-4.017 5.033-7.23 5.315l-185.287 16.282c-4.546.399-7.996 4.266-7.877 8.826l3.768 145.442c.104 3.999 2.941 7.403 6.856 8.228l218.13 45.882c5.333 1.122 10.753 1.677 16.173 1.665l.004-43.135v-274.834c-.002-12.006-3.742-12.746-8.313-1.645zm-25.365 271.232-81.886-13.187v-42.921h81.886zm-35.805-198.85-218.364 22.065c-6.671.674-11.532-6.18-8.69-12.252l58.145-124.286c1.183-2.529 3.516-4.331 6.262-4.835l239.934-44.069-70.262 158.29c-1.258 2.833-3.939 4.775-7.025 5.087zm323.807 37.189-185.286-16.281c-3.214-.282-6.003-2.332-7.23-5.315l-36.225-87.974c-4.571-11.102-8.312-10.362-8.312 1.644v274.833l.004 43.135c5.419.013 10.84-.543 16.174-1.665l218.13-45.882c3.915-.824 6.752-4.229 6.855-8.228l3.768-145.441c.119-4.561-3.333-8.427-7.878-8.826zm-76.252 77.686-10.233.283-.207 64.406c-.009 2.837-2.891 5.55-6.475 6.065l-16.771 2.412c-3.831.551-6.966-1.412-6.959-4.392l.156-67.651-11.705.324c-5.691.157-9.292-4.406-6.395-8.183l27.837-36.274c2.637-3.438 9.109-3.121 11.651.501l24.435 34.825c2.316 3.303-.613 7.552-5.334 7.684zm127.044-92.81-218.364-22.065c-3.086-.312-5.768-2.254-7.025-5.088l-70.261-158.29 239.934 44.069c2.746.504 5.079 2.306 6.263 4.835l58.145 124.286c2.841 6.073-2.021 12.927-8.692 12.253z"/></svg>