<svg enable-background="new 0 0 512 512" viewBox="0 0 512 512" xmlns="http://www.w3.org/2000/svg"><path d="m511.917 226.456c-.435-4.146-2.568-7.927-5.89-10.444l-40.557-30.721 14.756-48.689c1.209-3.991.713-8.303-1.371-11.914-2.084-3.61-5.571-6.196-9.63-7.144l-49.548-11.569-6.325-50.483c-.518-4.136-2.725-7.874-6.098-10.323-3.371-2.452-7.609-3.398-11.702-2.611l-49.968 9.584-26.315-43.545c-2.156-3.567-5.693-6.084-9.77-6.95-4.078-.867-8.332-.008-11.753 2.375l-41.747 29.079-41.749-29.078c-3.422-2.382-7.677-3.242-11.753-2.375-4.078.866-7.614 3.382-9.77 6.951l-26.311 43.546-49.968-9.584c-4.094-.784-8.331.16-11.703 2.611-3.372 2.45-5.58 6.186-6.097 10.323l-6.325 50.483-49.548 11.569c-4.06.948-7.545 3.534-9.63 7.144-2.084 3.611-2.58 7.922-1.372 11.911l14.754 48.691-40.554 30.719c-3.323 2.517-5.455 6.297-5.89 10.443-.436 4.146.863 8.287 3.591 11.44l33.281 38.481-24.555 44.559c-2.012 3.651-2.422 7.972-1.134 11.937 1.289 3.963 4.16 7.218 7.934 8.989l46.056 21.616-4.309 50.696c-.354 4.154 1.028 8.269 3.819 11.367 2.788 3.098 6.737 4.902 10.904 4.986l50.87 1.014 16.682 48.064c1.366 3.938 4.302 7.136 8.11 8.831 3.81 1.697 8.149 1.738 11.991.12l46.886-19.763 34.79 37.124c2.851 3.042 6.833 4.768 11.001 4.768 4.169 0 8.151-1.726 11.002-4.768l34.791-37.124 46.882 19.763c3.841 1.617 8.182 1.574 11.99-.12 3.808-1.695 6.745-4.891 8.111-8.83l16.684-48.065 50.868-1.014c4.167-.083 8.115-1.888 10.904-4.986s4.172-7.212 3.819-11.367l-4.309-50.696 46.059-21.616c3.775-1.771 6.646-5.026 7.934-8.99 1.288-3.963.878-8.285-1.135-11.937l-24.557-44.559 33.284-38.481c2.726-3.151 4.025-7.293 3.59-11.438zm-255.918 173.822c-79.556 0-144.278-64.723-144.278-144.278s64.723-144.278 144.278-144.278 144.278 64.724 144.278 144.278-64.723 144.278-144.278 144.278z"/><path d="m255.999 141.877c-62.927 0-114.122 51.195-114.122 114.122s51.196 114.122 114.122 114.122c62.929 0 114.122-51.195 114.122-114.122s-51.194-114.122-114.122-114.122zm59.112 92.485-64.599 64.599c-2.945 2.944-6.803 4.417-10.662 4.417-3.858 0-7.717-1.473-10.66-4.417l-32.302-32.3c-5.887-5.887-5.887-15.434 0-21.323 5.887-5.887 15.435-5.889 21.323 0l21.639 21.638 53.938-53.937c5.888-5.887 15.435-5.889 21.324 0 5.887 5.888 5.887 15.435-.001 21.323z"/></svg>