<svg viewBox="0 0 85.97 85.97" xmlns="http://www.w3.org/2000/svg"><g fill="#919aa3"><path d="m73.37 0h-60.78a12.61 12.61 0 0 0 -12.59 12.59v60.78a12.61 12.61 0 0 0 12.59 12.63h60.78a12.61 12.61 0 0 0 12.63-12.63v-60.78a12.61 12.61 0 0 0 -12.63-12.59zm-30.22 65.48a22.67 22.67 0 1 1 22.67-22.66 22.69 22.69 0 0 1 -22.67 22.66zm25.19-40.29a7.56 7.56 0 1 1 7.55-7.56 7.57 7.57 0 0 1 -7.55 7.56z"/><circle cx="43.15" cy="42.82" r="14.94" transform="matrix(.97325912 -.22971002 .22971002 .97325912 -8.68 11.06)"/></g></svg>