<svg viewBox="0 0 52.93 64.71" xmlns="http://www.w3.org/2000/svg"><g fill="#919aa3"><path d="m41.24 0h-14.1a3.46 3.46 0 0 0 -3.34 3.57 3.46 3.46 0 0 0 3.34 3.56h14.1c2.76 0 5 2.71 5 6v38.4c0 3.32-2.25 6-5 6h-13.87a3.57 3.57 0 0 0 0 7.13h13.87c6.45 0 11.69-5.9 11.69-13.15v-38.35c0-7.26-5.24-13.16-11.69-13.16z"/><path d="m11 35.94h26.93a3.58 3.58 0 0 0 0-7.14h-26.93l4.46-5.13a3.75 3.75 0 0 0 0-4.86 3.26 3.26 0 0 0 -2.46-1.14 3.26 3.26 0 0 0 -2.44 1.14l-9.66 11.12a3.76 3.76 0 0 0 0 4.88l9.67 11.09a3.19 3.19 0 0 0 2.43 1.17 3.23 3.23 0 0 0 2.44-1.14 3.75 3.75 0 0 0 0-4.86z"/></g></svg>