<svg viewBox="0 0 181.63 112.27" xmlns="http://www.w3.org/2000/svg"><path d="m66.26 12h49.11v88.26h-49.11z" fill="#ff5f00"/><path d="m69.37 56.14a56.08 56.08 0 0 1 21.44-44.14 56.13 56.13 0 1 0 0 88.27 56.06 56.06 0 0 1 -21.44-44.13z" fill="#eb001b"/><g fill="#f79e1b"><path d="m181.63 56.14a56.13 56.13 0 0 1 -90.82 44.13 56.13 56.13 0 0 0 0-88.27 56.13 56.13 0 0 1 90.82 44.13z"/><path d="m179.87 90.91v-2.18h-.56l-.65 1.56-.66-1.56h-.5v2.18h.41v-1.63l.61 1.42h.42l.6-1.42v1.65zm-3.6 0v-1.81h.73v-.37h-1.85v.37h.79v1.81z"/></g></svg>