<svg viewBox="0 0 71.08 71.09" xmlns="http://www.w3.org/2000/svg"><path d="m35.54 49.09a13.55 13.55 0 1 1 13.54-13.55 13.57 13.57 0 0 1 -13.54 13.55zm24.51-7.42a1.71 1.71 0 0 1 1.35-1.27l9.68-1.69v-6.45l-9.66-1.58a1.72 1.72 0 0 1 -1.37-1.26 25.19 25.19 0 0 0 -2.85-6.89 1.68 1.68 0 0 1 .07-1.84l5.64-8-4.56-4.6-7.92 5.69a1.7 1.7 0 0 1 -1.87.08 24.9 24.9 0 0 0 -6.92-2.86 1.7 1.7 0 0 1 -1.26-1.35l-1.68-9.65h-6.45l-1.56 9.57a1.69 1.69 0 0 1 -1.27 1.37 25.25 25.25 0 0 0 -6.94 2.85 1.7 1.7 0 0 1 -1.86-.07l-7.89-5.64-4.56 4.56 5.56 8a1.7 1.7 0 0 1 0 1.85 25.22 25.22 0 0 0 -2.89 7 1.69 1.69 0 0 1 -1.37 1.26l-9.47 1.5v6.46l9.53 1.69a1.7 1.7 0 0 1 1.35 1.25 25 25 0 0 0 2.89 7 1.68 1.68 0 0 1 -.07 1.86l-5.62 7.84 4.56 4.56 8-5.57a1.68 1.68 0 0 1 1.84-.07 25.3 25.3 0 0 0 7 2.87 1.68 1.68 0 0 1 1.26 1.37l1.6 9.58h6.36l1.71-9.63a1.7 1.7 0 0 1 1.25-1.34 25.46 25.46 0 0 0 6.91-2.89 1.7 1.7 0 0 1 1.85.05l8 5.63 4.58-4.56-5.72-7.94a1.7 1.7 0 0 1 -.07-1.86 24.67 24.67 0 0 0 2.84-6.88z" fill="#919aa3"/></svg>