<svg viewBox="0 0 86.89 90.86" xmlns="http://www.w3.org/2000/svg"><g fill="#919aa3"><path d="m21.28 25.09a18.86 18.86 0 0 0 .5 2 19.64 19.64 0 0 0 .69 1.91c.27.64.56 1.26.88 1.86s.68 1.19 1.06 1.77.8 1.13 1.23 1.65.9 1 1.38 1.53 1 .94 1.53 1.38a21.05 21.05 0 0 0 3.45 2.33 19.66 19.66 0 0 0 1.86.88c.63.26 1.28.5 1.94.7s1.32.36 2 .5 1.35.23 2 .3a20.43 20.43 0 0 0 2.06.1 20.15 20.15 0 0 0 2.06-.1q1-.1 2-.3c.67-.14 1.34-.31 2-.51a18.61 18.61 0 0 0 1.94-.69c.63-.26 1.26-.56 1.86-.88a19.71 19.71 0 0 0 1.77-1.06c.56-.38 1.12-.79 1.66-1.23s1-.9 1.52-1.38 1-1 1.39-1.53.85-1.09 1.22-1.65.74-1.17 1.07-1.78.61-1.23.88-1.86.49-1.27.69-1.94.36-1.32.5-2 .23-1.35.3-2a21.27 21.27 0 0 0 0-4.12c-.07-.69-.17-1.38-.3-2s-.3-1.35-.5-2-.44-1.31-.7-1.94-.55-1.25-.88-1.86a20.43 20.43 0 0 0 -1-1.76c-.38-.56-.79-1.12-1.23-1.66a21.58 21.58 0 0 0 -2.92-2.92c-.53-.43-1.09-.85-1.65-1.22a19.71 19.71 0 0 0 -1.77-1.06c-.6-.32-1.23-.62-1.86-.88s-1.28-.57-1.91-.77-1.36-.36-2-.5-1.35-.23-2-.3a21.81 21.81 0 0 0 -4.12 0q-1 .11-2 .3c-.67.14-1.34.31-2 .5s-1.31.44-1.94.7-1.25.55-1.87.88-1.19.68-1.76 1.06a19.77 19.77 0 0 0 -1.66 1.23c-.53.43-1 .9-1.53 1.38a19.85 19.85 0 0 0 -1.38 1.53 20.19 20.19 0 0 0 -1.23 1.65c-.38.58-.74 1.17-1.06 1.77s-.61 1.22-.88 1.87a19.29 19.29 0 0 0 -.69 1.93 20.15 20.15 0 0 0 -.5 2 20.52 20.52 0 0 0 -.31 2c-.06.68-.1 1.37-.1 2.06s0 1.38.1 2.06a19.89 19.89 0 0 0 .21 2.07zm7.59-4.09a10.69 10.69 0 0 1 .07-1.27c0-.42.1-.85.18-1.27s.19-.83.32-1.24a10.53 10.53 0 0 1 .42-1.22c.17-.4.35-.79.55-1.16s.42-.74.65-1.09.5-.7.77-1a12.43 12.43 0 0 1 .85-.94c.3-.3.62-.59 1-.86a12.26 12.26 0 0 1 1-.76 10.1 10.1 0 0 1 1.09-.65 11.12 11.12 0 0 1 1.13-.54c.39-.16.8-.31 1.2-.43a12.48 12.48 0 0 1 1.24-.31c.41-.08.84-.15 1.26-.19s.85-.07 1.27-.07.86 0 1.28.06.85.11 1.26.19.83.19 1.24.31.81.27 1.2.43a10.09 10.09 0 0 1 1.15.55 11.31 11.31 0 0 1 1.1.65c.34.23.69.49 1 .76s.64.56.94.86a10.88 10.88 0 0 1 .86.94 12.4 12.4 0 0 1 .76 1 12.15 12.15 0 0 1 .66 1.09c.2.38.38.77.54 1.15a11.51 11.51 0 0 1 .43 1.2 12.48 12.48 0 0 1 .31 1.24 10.21 10.21 0 0 1 .19 1.27c0 .42.06.84.06 1.27s0 .85-.06 1.27a10 10 0 0 1 -.19 1.26c-.08.43-.19.84-.3 1.24s-.27.81-.44 1.2a12 12 0 0 1 -.54 1.15 12.47 12.47 0 0 1 -.66 1.11 11.59 11.59 0 0 1 -.76 1 11.23 11.23 0 0 1 -.85 1c-.3.3-.62.59-1 .86s-.68.53-1 .76a11.31 11.31 0 0 1 -1.1.65 10.09 10.09 0 0 1 -1.15.55c-.39.16-.8.31-1.2.43s-.83.23-1.24.31-.84.15-1.26.19a13.58 13.58 0 0 1 -2.55 0c-.42 0-.85-.11-1.26-.19a12.48 12.48 0 0 1 -1.24-.31c-.4-.12-.81-.27-1.2-.43s-.78-.35-1.16-.55-.69-.47-1.04-.66-.69-.49-1-.76-.64-.56-.94-.86-.59-.62-.86-1-.52-.66-.76-1-.45-.72-.65-1.09-.44-.73-.58-1.1-.31-.8-.43-1.21-.22-.82-.31-1.23-.14-.85-.18-1.27a10.81 10.81 0 0 1 -.07-1.29z"/><path d="m43.45 45.91a43.5 43.5 0 0 0 -43.45 43.45v1.5h8v-1.5a35.45 35.45 0 1 1 70.89 0v1.5h8v-1.5a43.5 43.5 0 0 0 -43.44-43.45z"/></g></svg>