<svg viewBox="0 0 299.31 97.01" xmlns="http://www.w3.org/2000/svg"><g fill="#045aa0"><path d="m213.2 95.27c-.4-1.34.34-2.29.76-3.28q17-40.45 34-80.9l.75-1.77c2.1-5 5.94-7.4 11.24-7.49 6.08-.1 12.16-.06 18.24 0 1.72 0 2.08.35 2.48 2.26 1.32 6.25 2.59 12.52 3.9 18.78q7.06 33.8 14.15 67.59c0 .15.08.3.11.46.86 5.08 1.17 4.78-3.83 4.77-5.28 0-10.56 0-15.84 0a2 2 0 0 1 -2.32-1.84q-1-4.95-2.06-9.86c-.48-2.16-.77-2.42-2.85-2.43-8.8 0-17.6 0-26.39 0-2 0-2.81.88-3.39 2.6-1 3.19-2.33 6.3-3.42 9.47a2.59 2.59 0 0 1 -2.73 2.06c-7.2 0-14.4 0-21.6 0a4.3 4.3 0 0 1 -1.2-.42zm56.95-33.52q-3.4-16.5-6.83-33a2 2 0 0 0 -1.45 1.53q-5.44 14.82-10.87 29.66c-.25.68-.77 1.42-.08 2.17 6.87.52 15.68.37 19.23-.36z"/><path d="m148.23 71 6.33 2.68a47.8 47.8 0 0 0 19.65 3.65 22.4 22.4 0 0 0 8.89-1.7 10.47 10.47 0 0 0 4.18-3.12 6.83 6.83 0 0 0 .11-8.44 13.07 13.07 0 0 0 -3.92-3.49c-2.33-1.4-4.74-2.66-7.1-4-2.79-1.56-5.61-3.06-8.33-4.73a37.46 37.46 0 0 1 -4.6-3.44c-10.37-8.82-10.22-20.75-5.09-30.39a30 30 0 0 1 13-12.39c8.74-4.54 18.13-6.03 27.87-5.54a49 49 0 0 1 18.12 4.05c.06 4-1.93 15.9-3.37 19.8-1.47-.56-2.93-1.13-4.4-1.68a42.71 42.71 0 0 0 -18.89-2.26 14.55 14.55 0 0 0 -6.78 2.18c-4.5 2.91-4.88 7.17-.86 10.67a30.26 30.26 0 0 0 4.73 3.25c2.64 1.5 5.37 2.83 8.07 4.22a52.24 52.24 0 0 1 8.5 5.37c8.92 7 12 16.16 8.69 27.76a28.48 28.48 0 0 1 -12.21 16.07c-6.71 4.48-14.24 6.48-22.12 7.17a78.43 78.43 0 0 1 -29.4-3 27.22 27.22 0 0 1 -2.7-1c-.95-.38-1.62-1-1.43-2.15.99-6.3 1.98-12.6 3.06-19.54z"/><path d="m57.93 50 3.13 13.49c1.76-.64 1.77-2.1 2.2-3.24q7.64-20.41 15.22-40.85c2-5.24 3.92-10.47 5.84-15.72a2.62 2.62 0 0 1 2.86-1.94c7.19.07 14.39 0 21.58.05a5.17 5.17 0 0 1 1.3.33c.38 1.28-.3 2.22-.7 3.21q-17.62 43.28-35.26 86.54c-.36.88-.74 1.76-1.19 2.61a1.77 1.77 0 0 1 -1.54 1c-.48 0-1 .06-1.44.06-6.71 0-13.43 0-20.15 0-2.82 0-2.89 0-3.61-2.7q-3.45-12.72-6.82-25.46-6.65-25-13.24-50c-.25-.92-.36-1.88-.54-2.81a12.89 12.89 0 0 1 1.74.76 76 76 0 0 1 27.93 29.67c.88 1.64 1.76 3.32 2.69 5z"/><path d="m132.72 1.78h10.56c1 0 1.48.51 1.34 1.49-.38 2.69-.77 5.38-1.2 8.06q-5.28 32.67-10.57 65.29-1.35 8.28-2.73 16.55c-.37 2.15-.69 2.49-2.75 2.5q-9.83.06-19.66 0c-1.9 0-2.28-.47-2-2.3q2.29-14.2 4.54-28.37 3.65-22.5 7.35-45c.88-5.36 1.73-10.72 2.66-16.08.37-2.11.44-2.15 2.39-2.17h10.07z"/></g><path d="m57.93 50c-.89-1.68-1.81-3.36-2.69-5a76 76 0 0 0 -27.93-29.74 12.89 12.89 0 0 0 -1.74-.76c-6.16-4.13-13-6.78-20-9-1.67-.54-3.34-1.08-5-1.7a.83.83 0 0 1 -.48-1.21c.12-.26.37-.59.62-.59a11.7 11.7 0 0 1 2.36-.27q17.27 0 34.53 0a28.73 28.73 0 0 1 3.82.27c5 .69 7.76 3.07 8.88 8.05 1 4.2 1.68 8.46 2.52 12.69 1.61 8.15 3.25 16.3 4.85 24.46a26.94 26.94 0 0 1 .26 2.8z" fill="#f8a720"/></svg>